<svg width="25" height="25" viewBox="0 0 25 25" fill="none" xmlns="http://www.w3.org/2000/svg">
<mask id="path-1-outside-1" maskUnits="userSpaceOnUse" x="0" y="0" width="25" height="25" fill="black">
<rect fill="white" width="25" height="25"/>
<path fill-rule="evenodd" clip-rule="evenodd" d="M4 1H21C22.65 1 24 2.35 24 4V21C24 22.65 22.65 24 21 24H4C2.35 24 1 22.65 1 21V4C1 2.35 2.35 1 4 1ZM22 4C22 3.458 21.542 3 21 3H4C3.458 3 3 3.458 3 4V21C3 21.542 3.458 22 4 22H21C21.542 22 22 21.542 22 21V4Z"/>
</mask>
<path fill-rule="evenodd" clip-rule="evenodd" d="M4 1H21C22.65 1 24 2.35 24 4V21C24 22.65 22.65 24 21 24H4C2.35 24 1 22.65 1 21V4C1 2.35 2.35 1 4 1ZM22 4C22 3.458 21.542 3 21 3H4C3.458 3 3 3.458 3 4V21C3 21.542 3.458 22 4 22H21C21.542 22 22 21.542 22 21V4Z" fill="#4D4D4D"/>
<path d="M21 0H4V2H21V0ZM25 4C25 1.79772 23.2023 0 21 0V2C22.0977 2 23 2.90228 23 4H25ZM25 21V4H23V21H25ZM21 25C23.2023 25 25 23.2023 25 21H23C23 22.0977 22.0977 23 21 23V25ZM4 25H21V23H4V25ZM0 21C0 23.2023 1.79772 25 4 25V23C2.90228 23 2 22.0977 2 21H0ZM0 4V21H2V4H0ZM4 0C1.79772 0 0 1.79772 0 4H2C2 2.90228 2.90228 2 4 2V0ZM21 4C20.9936 4 20.9894 3.99849 20.9888 3.99823C20.9887 3.99819 20.9895 3.99855 20.991 3.99957C20.9925 4.0006 20.9943 4.00204 20.9961 4.00386C20.998 4.00568 20.9994 4.00747 21.0004 4.00898C21.0015 4.01047 21.0018 4.0113 21.0018 4.01122C21.0015 4.01062 21 4.00643 21 4H23C23 2.90572 22.0943 2 21 2V4ZM4 4H21V2H4V4ZM4 4C4 4.00643 3.99849 4.01062 3.99823 4.01122C3.99819 4.0113 3.99855 4.01047 3.99957 4.00898C4.0006 4.00747 4.00204 4.00568 4.00386 4.00386C4.00568 4.00204 4.00747 4.0006 4.00898 3.99957C4.01047 3.99855 4.0113 3.99819 4.01122 3.99823C4.01062 3.99849 4.00643 4 4 4V2C2.90572 2 2 2.90572 2 4H4ZM4 21V4H2V21H4ZM4 21C4.00643 21 4.01062 21.0015 4.01122 21.0018C4.0113 21.0018 4.01047 21.0015 4.00898 21.0004C4.00747 20.9994 4.00568 20.998 4.00386 20.9961C4.00204 20.9943 4.0006 20.9925 3.99957 20.991C3.99855 20.9895 3.99819 20.9887 3.99823 20.9888C3.99849 20.9894 4 20.9936 4 21H2C2 22.0943 2.90572 23 4 23V21ZM21 21H4V23H21V21ZM21 21C21 20.9936 21.0015 20.9894 21.0018 20.9888C21.0018 20.9887 21.0015 20.9895 21.0004 20.991C20.9994 20.9925 20.998 20.9943 20.9961 20.9961C20.9943 20.998 20.9925 20.9994 20.991 21.0004C20.9895 21.0015 20.9887 21.0018 20.9888 21.0018C20.9894 21.0015 20.9936 21 21 21V23C22.0943 23 23 22.0943 23 21H21ZM21 4V21H23V4H21Z" fill="white" mask="url(#path-1-outside-1)"/>
</svg>
