<svg width="28" height="25" viewBox="0 0 28 25" fill="none" xmlns="http://www.w3.org/2000/svg">
<path d="M8.32077 8.14051L7.95922 7.7621L7.59771 8.14054L4.89529 10.9695L4.56537 11.3149L4.89529 11.6603L12.33 19.4433L12.6916 19.8218L13.0531 19.4433L26.3618 5.51129L26.6916 5.16598L26.3618 4.82061L23.6604 1.99161L23.2988 1.61302L22.9372 1.99151L12.6916 12.7151L8.32077 8.14051Z" fill="#4D4D4D" stroke="white"/>
<path d="M20.0172 3.5H20.2311L20.3788 3.34537L21.8929 1.76037L22.318 1.31535L21.7953 0.990387C21.2863 0.673883 20.704 0.503924 20.1084 0.500011L20.1084 0.5H20.1051H3.86577C1.99213 0.5 0.5 2.09567 0.5 4V21C0.5 22.9043 1.99213 24.5 3.86577 24.5H20.1051C21.9788 24.5 23.4709 22.9043 23.4709 21V11.171V9.92372L22.6093 10.8256L20.6988 12.8256L20.5604 12.9706V13.171V21C20.5604 21.2877 20.3254 21.5 20.1051 21.5H3.86577C3.64548 21.5 3.41051 21.2877 3.41051 21V4C3.41051 3.71233 3.64548 3.5 3.86577 3.5H20.0172Z" fill="#4D4D4D" stroke="white"/>
</svg>
